<!--?xml version="1.0" encoding="UTF-8"?-->
<svg width="500" height="500" version="1.1" viewBox="0 0 132.29 132.29" xmlns="http://www.w3.org/2000/svg" xmlns:cc="http://creativecommons.org/ns#" xmlns:dc="http://purl.org/dc/elements/1.1/" xmlns:rdf="http://www.w3.org/1999/02/22-rdf-syntax-ns#" style="" class="">
 <metadata>
  <rdf:rdf>
   <cc:work rdf:about="">
    <dc:format>image/svg+xml</dc:format>
    <dc:type rdf:resource="http://purl.org/dc/dcmitype/StillImage"></dc:type>
    <dc:title></dc:title>
   </cc:work>
  </rdf:rdf>
 </metadata>
 <g display="none" font-family="sans-serif" font-size="19.05px" opacity=".37028">
  <text style="line-height:1.25;shape-inside:url(#rect832);white-space:pre" xml:space="preserve"></text>
  <text transform="matrix(7.8836 0 0 10.251 -57.353 -239.67)" stroke-width=".11124" style="line-height:1.25;shape-inside:url(#rect838);white-space:pre" xml:space="preserve"><tspan x="7.75" y="34.227831"><tspan font-family="CHENETUNICODE007" stroke-width=".11124">அ</tspan></tspan></text>
 </g>
 <g fill="none" stroke="#000" stroke-width="2.819">
  <path d="m55.239 28.002c4.7187 0.90162 11.163-0.88074 14.189 3.8069 2.1084 3.2666 4.7872 8.5038 2.1203 11.326-2.933 3.1038-6.2323 7.1498-11.104 6.2583-3.4437-0.63019-8.0979-1.4782-9.417-4.9278-2.0421-5.3402-0.97854-12.577 3.5279-15.898 4.1635-3.0686 9.4868-4.1599 14.492-4.4746 6.0267-0.37894 12.768 1.4495 16.08 6.9879 5.5753 9.3241 6.2837 20.693 5.2861 31.237-1.1685 12.351-2.3601 27.712-12.938 34.658-4.8637 3.1937-10.772 4.3545-16.354 5.7101-13.852 3.3637-29.252 1.6431-41.477-5.7149-8.0945-4.8718-15.464-12.445-17.382-22.021-0.86686-4.3261 1.5127-8.7751 5.5597-10.636 9.0797-4.1747 19.36-4.2428 29.158-4.5432 21.558-0.66078 43.04 1.7467 64.568 2.2501 2.5449 0.05951 5.0949 0.09743 7.6367-0.06923" class="vLedOFjy_0"></path>
  <path d="m108.54 16.687c-1.5775 14.868-0.4491 29.841-9e-3 44.741 0.39026 13.199 1.3737 26.555-0.85534 39.628-0.47936 2.8115-1.1277 5.6125-2.2068 8.2599" class="vLedOFjy_1"></path>
 </g>
<style data-made-with="vivus-instant">.vLedOFjy_0{stroke-dasharray:378 380;stroke-dashoffset:379;}.start .vLedOFjy_0{animation:vLedOFjy_draw 3800ms linear 0ms forwards;}.vLedOFjy_1{stroke-dasharray:94 96;stroke-dashoffset:95;}.start .vLedOFjy_1{animation:vLedOFjy_draw 3800ms linear 0ms forwards;}@keyframes vLedOFjy_draw{100%{stroke-dashoffset:0;}}@keyframes vLedOFjy_fade{0%{stroke-opacity:1;}95%{stroke-opacity:1;}100%{stroke-opacity:0;}}</style></svg>
